<svg width="188" height="34" viewBox="0 0 188 34" fill="none" xmlns="http://www.w3.org/2000/svg">
<path d="M6.72 22.352C6.72 23.44 7.49867 23.984 9.056 23.984C9.056 24.7307 8.81067 25.4027 8.32 26H1.664C1.19467 25.424 0.96 24.752 0.96 23.984C1.70667 23.984 2.26133 23.856 2.624 23.6C2.98667 23.344 3.168 22.928 3.168 22.352V7.312C3.168 6.224 2.38933 5.68 0.832 5.68C0.832 5.31733 0.896 4.95467 1.024 4.592C1.152 4.22933 1.32267 3.92 1.536 3.664H5.984C6.60267 3.664 7.22133 3.90933 7.84 4.4C8.45867 4.86933 9.04533 5.53067 9.6 6.384L16.864 17.872V7.312C16.864 6.736 16.672 6.32 16.288 6.064C15.904 5.808 15.3387 5.68 14.592 5.68C14.592 5.296 14.656 4.93333 14.784 4.592C14.912 4.22933 15.0933 3.92 15.328 3.664H22.144C22.3787 3.92 22.56 4.22933 22.688 4.592C22.816 4.95467 22.88 5.31733 22.88 5.68C22.1547 5.68 21.6 5.808 21.216 6.064C20.8533 6.32 20.672 6.736 20.672 7.312V26.192H19.392C18.3467 26.192 17.5787 26.064 17.088 25.808C16.5973 25.5307 16.128 25.0613 15.68 24.4L6.72 10.8V22.352ZM33.3963 22.736C34.7403 22.736 35.9883 22.3093 37.1403 21.456C37.3109 21.6267 37.4603 21.8827 37.5883 22.224C37.7163 22.5653 37.7803 22.864 37.7803 23.12C37.7803 23.504 37.5243 23.952 37.0123 24.464C36.5003 24.9547 35.7856 25.3813 34.8683 25.744C33.9723 26.1067 32.9589 26.288 31.8283 26.288C30.2496 26.288 28.8629 25.9467 27.6683 25.264C26.4949 24.5813 25.5883 23.5893 24.9483 22.288C24.3083 20.9867 23.9883 19.4507 23.9883 17.68C23.9883 15.8667 24.3296 14.2773 25.0123 12.912C25.7163 11.5467 26.6763 10.5013 27.8923 9.776C29.1083 9.02933 30.4843 8.656 32.0203 8.656C33.9616 8.656 35.5083 9.22133 36.6603 10.352C37.8123 11.4827 38.3883 13.0507 38.3883 15.056C38.3883 15.9947 38.2389 16.7413 37.9403 17.296C37.6416 17.8293 37.1083 18.096 36.3403 18.096H29.4283C29.5563 21.1893 30.8789 22.736 33.3963 22.736ZM31.8283 10.864C31.1669 10.864 30.6123 11.2373 30.1643 11.984C29.7163 12.7093 29.4709 13.936 29.4283 15.664H32.6603C33.0016 15.664 33.2256 15.5467 33.3323 15.312C33.4389 15.0773 33.4923 14.7147 33.4923 14.224C33.4923 12.9653 33.3429 12.0907 33.0443 11.6C32.7456 11.1093 32.3403 10.864 31.8283 10.864ZM54.0028 22.096C54.4934 22.7573 54.9414 23.2693 55.3468 23.632C55.7521 23.9733 56.1681 24.144 56.5948 24.144C56.5948 24.9547 56.3814 25.5733 55.9548 26H48.3068C47.8588 25.5733 47.6348 24.9547 47.6348 24.144C48.0614 24.144 48.3814 24.0693 48.5948 23.92C48.8081 23.7493 48.9148 23.5253 48.9148 23.248C48.9148 22.9067 48.7974 22.5653 48.5628 22.224L46.7388 19.792L45.0428 22.064C44.8081 22.384 44.6908 22.6933 44.6908 22.992C44.6908 23.3333 44.8188 23.6107 45.0748 23.824C45.3521 24.0373 45.7148 24.144 46.1628 24.144C46.1628 24.9547 45.9494 25.5733 45.5228 26H39.6988C39.1654 25.4667 38.8987 24.848 38.8987 24.144C39.3468 24.08 39.8161 23.888 40.3068 23.568C40.7974 23.2267 41.2028 22.8427 41.5228 22.416L45.3948 17.68L41.7148 12.88C41.5654 12.7307 41.3841 12.5067 41.1708 12.208C40.8508 11.7813 40.5628 11.4613 40.3068 11.248C40.0508 11.0347 39.7308 10.928 39.3468 10.928C39.3468 10.0107 39.5708 9.37067 40.0188 9.008H47.1548C47.5814 9.34933 47.7948 9.98933 47.7948 10.928C47.0908 10.928 46.7388 11.152 46.7388 11.6C46.7388 11.9627 46.8881 12.3467 47.1868 12.752L48.8188 14.992L50.1628 13.296C50.4614 12.4853 50.6108 11.984 50.6108 11.792C50.6108 11.5147 50.5041 11.3013 50.2908 11.152C50.0988 11.0027 49.8748 10.928 49.6188 10.928C49.6188 10.0107 49.8321 9.37067 50.2588 9.008H55.7948C56.2428 9.37067 56.4668 10.0107 56.4668 10.928C55.9121 10.928 55.4214 11.056 54.9948 11.312C54.5894 11.5467 54.1521 11.9627 53.6828 12.56L50.1628 16.784L54.0028 22.096ZM63.9233 11.888V20.912C63.9233 21.552 64.0513 22 64.3073 22.256C64.5633 22.4907 64.9259 22.608 65.3953 22.608C65.8006 22.608 66.2273 22.5013 66.6753 22.288C67.1233 22.0747 67.4753 21.808 67.7313 21.488C67.9446 21.6587 68.0939 21.9147 68.1793 22.256C68.2859 22.5973 68.3393 22.9067 68.3393 23.184C68.3393 23.6747 68.1686 24.1547 67.8273 24.624C67.4859 25.0933 66.9739 25.4773 66.2913 25.776C65.6086 26.0747 64.7873 26.224 63.8273 26.224C62.3339 26.224 61.1286 25.7973 60.2113 24.944C59.3153 24.0907 58.8673 22.672 58.8673 20.688V11.888H56.8513V9.936C57.4059 9.85067 57.9393 9.49867 58.4513 8.88C58.9846 8.24 59.4326 7.45067 59.7953 6.512C60.1793 5.552 60.4246 4.60267 60.5312 3.664C60.9153 3.6 61.2673 3.568 61.5873 3.568C62.3553 3.568 62.9206 3.792 63.2833 4.24C63.6673 4.66667 63.8593 5.14667 63.8593 5.68V9.04H67.5713C67.5713 9.68 67.5393 10.2347 67.4753 10.704C67.4113 11.152 67.2726 11.5467 67.0593 11.888H63.9233Z" fill="white"/>
<path d="M87.3138 21.072C87.5484 21.8827 87.8471 22.4907 88.2098 22.896C88.5938 23.28 89.0844 23.5147 89.6818 23.6V25.2C89.1911 25.8827 88.2631 26.224 86.8978 26.224C85.6178 26.224 84.6044 26.0107 83.8578 25.584C83.1324 25.1573 82.5884 24.6027 82.2258 23.92C81.8844 23.216 81.5644 22.2987 81.2658 21.168C80.9458 19.9093 80.6044 18.864 80.2418 18.032C79.8791 17.2 79.4098 16.688 78.8338 16.496H76.7218V22.352C76.7218 22.9067 76.9244 23.3227 77.3298 23.6C77.7351 23.856 78.2684 23.984 78.9298 23.984C78.9298 24.752 78.6951 25.424 78.2258 26H70.1938C69.7031 25.4027 69.4578 24.7307 69.4578 23.984C70.1831 23.984 70.7058 23.856 71.0258 23.6C71.3671 23.344 71.5378 22.928 71.5378 22.352V7.312C71.5378 6.736 71.3671 6.32 71.0258 6.064C70.6844 5.808 70.1511 5.68 69.4258 5.68C69.4258 4.82667 69.6391 4.15467 70.0658 3.664C71.4738 3.664 73.0524 3.62133 74.8018 3.536C76.3378 3.45067 77.5431 3.408 78.4178 3.408C84.5191 3.408 87.5698 5.46667 87.5698 9.584C87.5698 12.72 85.9058 14.6293 82.5778 15.312C83.5378 15.5893 84.4551 16.2613 85.3298 17.328C86.2044 18.3733 86.8658 19.6213 87.3138 21.072ZM78.1298 14.288C79.4098 14.288 80.4124 13.8933 81.1378 13.104C81.8631 12.2933 82.2258 11.2267 82.2258 9.904C82.2258 8.53867 81.9058 7.52533 81.2658 6.864C80.6471 6.18133 79.6551 5.84 78.2898 5.84C77.5644 5.84 77.0418 5.88266 76.7218 5.968V14.224C77.1058 14.2667 77.5751 14.288 78.1298 14.288ZM99.74 22.736C101.084 22.736 102.332 22.3093 103.484 21.456C103.655 21.6267 103.804 21.8827 103.932 22.224C104.06 22.5653 104.124 22.864 104.124 23.12C104.124 23.504 103.868 23.952 103.356 24.464C102.844 24.9547 102.129 25.3813 101.212 25.744C100.316 26.1067 99.3027 26.288 98.172 26.288C96.5933 26.288 95.2067 25.9467 94.012 25.264C92.8387 24.5813 91.932 23.5893 91.292 22.288C90.652 20.9867 90.332 19.4507 90.332 17.68C90.332 15.8667 90.6733 14.2773 91.356 12.912C92.06 11.5467 93.02 10.5013 94.236 9.776C95.452 9.02933 96.828 8.656 98.364 8.656C100.305 8.656 101.852 9.22133 103.004 10.352C104.156 11.4827 104.732 13.0507 104.732 15.056C104.732 15.9947 104.583 16.7413 104.284 17.296C103.985 17.8293 103.452 18.096 102.684 18.096H95.772C95.9 21.1893 97.2227 22.736 99.74 22.736ZM98.172 10.864C97.5107 10.864 96.956 11.2373 96.508 11.984C96.06 12.7093 95.8147 13.936 95.772 15.664H99.004C99.3453 15.664 99.5693 15.5467 99.676 15.312C99.7827 15.0773 99.836 14.7147 99.836 14.224C99.836 12.9653 99.6867 12.0907 99.388 11.6C99.0893 11.1093 98.684 10.864 98.172 10.864ZM106.267 21.488C106.267 20.0587 106.736 18.928 107.674 18.096C108.613 17.264 110 16.848 111.835 16.848C112.475 16.848 113.125 16.912 113.786 17.04C114.469 17.168 115.024 17.3387 115.451 17.552V13.296C115.451 12.4427 115.237 11.8347 114.811 11.472C114.384 11.088 113.808 10.896 113.083 10.896C112.379 10.896 111.803 11.0667 111.355 11.408C111.76 11.536 112.059 11.76 112.251 12.08C112.464 12.3787 112.571 12.72 112.571 13.104C112.571 13.7867 112.325 14.3413 111.835 14.768C111.344 15.1947 110.725 15.408 109.979 15.408C109.168 15.408 108.517 15.1733 108.027 14.704C107.536 14.2347 107.291 13.6267 107.291 12.88C107.291 12.1333 107.547 11.4293 108.059 10.768C108.571 10.1067 109.349 9.57333 110.395 9.168C111.461 8.76267 112.773 8.56 114.331 8.56C116.443 8.56 118.043 8.99733 119.131 9.872C120.219 10.7253 120.763 11.984 120.763 13.648V22.128C120.763 23.152 121.253 23.7707 122.235 23.984V25.008C121.957 25.392 121.499 25.6907 120.859 25.904C120.219 26.1173 119.568 26.224 118.907 26.224C117.456 26.224 116.432 25.7227 115.835 24.72C115.344 25.1467 114.747 25.5093 114.043 25.808C113.339 26.0853 112.539 26.224 111.643 26.224C110.043 26.224 108.741 25.7867 107.739 24.912C106.757 24.016 106.267 22.8747 106.267 21.488ZM115.451 20.016C115.216 19.8667 114.928 19.7387 114.587 19.632C114.267 19.5253 113.957 19.472 113.659 19.472C113.061 19.472 112.571 19.664 112.187 20.048C111.803 20.4107 111.611 20.944 111.611 21.648C111.611 22.224 111.803 22.704 112.187 23.088C112.571 23.4507 113.083 23.632 113.723 23.632C114.043 23.632 114.352 23.5893 114.651 23.504C114.971 23.3973 115.237 23.2693 115.451 23.12V20.016ZM140.542 25.2C140.243 25.584 139.795 25.8827 139.198 26.096C138.601 26.3093 137.961 26.416 137.278 26.416C136.659 26.416 136.051 26.2773 135.454 26C134.857 25.744 134.441 25.3813 134.206 24.912C133.779 25.4667 133.246 25.8507 132.606 26.064C131.987 26.2987 131.209 26.416 130.27 26.416C129.075 26.416 127.977 26.1173 126.974 25.52C125.971 24.9013 125.161 23.9947 124.542 22.8C123.945 21.584 123.646 20.1013 123.646 18.352C123.646 16.2827 124.03 14.5227 124.798 13.072C125.587 11.6213 126.622 10.5333 127.902 9.808C129.182 9.08267 130.59 8.72 132.126 8.72C132.489 8.72 133.139 8.76267 134.078 8.848L133.982 6.928V5.328C133.982 4.79467 133.833 4.4 133.534 4.144C133.235 3.888 132.67 3.76 131.838 3.76V2.448C132.585 2.04266 133.555 1.68 134.75 1.36C135.945 1.04 136.883 0.879999 137.566 0.879999C138.057 0.879999 138.409 0.997332 138.622 1.232C138.857 1.44533 138.974 1.81867 138.974 2.352V22.448C138.974 23.4933 139.486 24.112 140.51 24.304L140.542 25.2ZM132.478 23.696C133.139 23.696 133.641 23.504 133.982 23.12V11.92C133.534 11.3013 132.937 10.992 132.19 10.992C131.251 10.992 130.494 11.4827 129.918 12.464C129.363 13.4453 129.086 15.0347 129.086 17.232C129.086 19.344 129.395 20.9547 130.014 22.064C130.654 23.152 131.475 23.696 132.478 23.696ZM149.067 3.376C149.067 4.29333 148.779 5.02933 148.203 5.584C147.648 6.11733 146.902 6.384 145.963 6.384C145.046 6.384 144.31 6.11733 143.755 5.584C143.222 5.02933 142.955 4.29333 142.955 3.376C142.955 2.48 143.232 1.75467 143.787 1.2C144.363 0.645332 145.11 0.367998 146.027 0.367998C146.944 0.367998 147.68 0.645332 148.235 1.2C148.79 1.75467 149.067 2.48 149.067 3.376ZM148.459 22.544C148.459 23.1627 148.608 23.6107 148.907 23.888C149.227 24.144 149.707 24.272 150.347 24.272C150.347 24.9333 150.102 25.5093 149.611 26H142.379C141.888 25.5093 141.643 24.9333 141.643 24.272C142.283 24.272 142.742 24.144 143.019 23.888C143.318 23.6107 143.467 23.152 143.467 22.512V13.232C143.467 12.6347 143.318 12.208 143.019 11.952C142.742 11.696 142.187 11.568 141.355 11.568V10.16C141.867 9.84 142.731 9.50933 143.947 9.168C145.184 8.80533 146.23 8.624 147.083 8.624C147.574 8.624 147.926 8.74133 148.139 8.976C148.352 9.18933 148.459 9.56267 148.459 10.096V22.544ZM169.788 25.136C169.468 25.456 168.892 25.712 168.06 25.904C167.249 26.096 166.47 26.192 165.724 26.192C164.806 26.192 164.124 26.0213 163.676 25.68C163.249 25.3387 163.036 24.7947 163.036 24.048V14.064C163.036 13.232 162.854 12.6347 162.492 12.272C162.129 11.9093 161.649 11.728 161.052 11.728C160.177 11.728 159.441 12.08 158.844 12.784V22.544C158.844 23.1627 158.972 23.6107 159.228 23.888C159.505 24.1653 159.964 24.304 160.604 24.304C160.604 24.944 160.358 25.5093 159.868 26H152.604C152.092 25.488 151.836 24.9227 151.836 24.304C152.476 24.304 152.934 24.1653 153.212 23.888C153.489 23.6107 153.628 23.1627 153.628 22.544V13.2C153.628 12.624 153.468 12.2187 153.148 11.984C152.828 11.728 152.273 11.6 151.484 11.6V10.16C152.166 9.776 153.126 9.424 154.364 9.104C155.622 8.784 156.572 8.624 157.212 8.624C157.702 8.624 158.076 8.784 158.332 9.104C158.609 9.40267 158.769 9.97867 158.812 10.832C159.366 10.1493 160.06 9.616 160.892 9.232C161.724 8.82667 162.662 8.624 163.708 8.624C165.244 8.624 166.374 9.01867 167.1 9.808C167.846 10.576 168.22 11.8453 168.22 13.616V22.352C168.22 23.3973 168.732 24.016 169.756 24.208L169.788 25.136ZM179.046 22.192C181.798 22.384 183.846 22.8853 185.19 23.696C186.556 24.4853 187.238 25.6587 187.238 27.216C187.238 28.304 186.833 29.296 186.022 30.192C185.212 31.1093 184.134 31.824 182.79 32.336C181.468 32.8693 180.049 33.136 178.534 33.136C175.996 33.136 174.097 32.6773 172.838 31.76C171.58 30.864 170.95 29.6587 170.95 28.144C170.95 27.3547 171.206 26.64 171.718 26C172.252 25.3387 173.009 24.848 173.99 24.528C173.564 24.2293 173.276 23.8773 173.126 23.472C172.998 23.0667 172.934 22.5653 172.934 21.968C172.934 21.584 173.084 21.2 173.382 20.816C173.681 20.4107 174.097 20.112 174.63 19.92C173.628 19.3867 172.838 18.6507 172.262 17.712C171.708 16.7733 171.43 15.76 171.43 14.672C171.43 13.5627 171.697 12.5707 172.23 11.696C172.785 10.8 173.585 10.096 174.63 9.584C175.697 9.05067 176.988 8.784 178.502 8.784H178.534C179.302 8.784 179.964 8.83733 180.518 8.944C182.524 8.944 183.9 8.92267 184.646 8.88C185.414 8.816 186.15 8.73067 186.854 8.624C187.068 8.624 187.228 8.77333 187.334 9.072C187.462 9.34933 187.526 9.648 187.526 9.968C187.526 10.928 187.11 11.408 186.278 11.408C186.086 11.408 185.5 11.216 184.518 10.832C184.348 10.7467 184.092 10.64 183.75 10.512C184.454 11.088 184.998 11.7493 185.382 12.496C185.766 13.2213 185.958 13.9253 185.958 14.608C185.958 16.592 185.276 18.1173 183.91 19.184C182.566 20.2293 180.678 20.752 178.246 20.752C177.649 20.752 176.977 20.6773 176.23 20.528V20.624C176.23 21.136 176.433 21.5093 176.838 21.744C177.244 21.9573 177.98 22.1067 179.046 22.192ZM178.79 10.896C178.108 10.896 177.617 11.248 177.318 11.952C177.041 12.656 176.902 13.68 176.902 15.024C176.902 17.4347 177.532 18.64 178.79 18.64C179.473 18.64 179.964 18.2773 180.262 17.552C180.561 16.8267 180.71 15.7173 180.71 14.224C180.71 13.0507 180.55 12.208 180.23 11.696C179.91 11.1627 179.43 10.896 178.79 10.896ZM179.59 30.512C180.572 30.512 181.297 30.2773 181.766 29.808C182.236 29.3387 182.47 28.752 182.47 28.048C182.47 27.408 182.076 26.928 181.286 26.608C180.518 26.3093 179.302 26.0213 177.638 25.744L176.198 25.456C175.921 25.9253 175.782 26.544 175.782 27.312C175.782 28.2933 176.081 29.072 176.678 29.648C177.276 30.224 178.246 30.512 179.59 30.512Z" fill="#F48024"/>
</svg>
