<svg width="200" height="200" viewBox="0 0 200 200" fill="none" xmlns="http://www.w3.org/2000/svg">
<path d="M161.458 154.871L91.4581 128.359C87.5711 126.887 85 123.164 85 119.007L85 14.691C85 7.6377 92.1055 2.80103 98.6674 5.38771L168.667 32.9819C172.489 34.4882 175 38.1778 175 42.2852L175 145.519C175 152.515 168.001 157.349 161.458 154.871Z" fill="#EBBC97"/>
<path d="M131.458 174.871L61.4581 148.359C57.5711 146.887 55 143.164 55 139.007L55 34.691C55 27.6377 62.1055 22.801 68.6674 25.3877L138.667 52.9819C142.489 54.4882 145 58.1778 145 62.2852L145 165.519C145 172.515 138.001 177.349 131.458 174.871Z" fill="#F09F5E"/>
<path d="M101.458 194.871L31.4581 168.359C27.5711 166.887 25 163.164 25 159.007L25 54.691C25 47.6377 32.1055 42.801 38.6674 45.3877L108.667 72.9819C112.489 74.4882 115 78.1779 115 82.2852L115 185.519C115 192.515 108.001 197.349 101.458 194.871Z" fill="#F48024"/>
</svg>
