<svg width="200" height="200" viewBox="0 0 200 200" fill="none" xmlns="http://www.w3.org/2000/svg">
<rect width="200" height="200" fill="#CED0D4"/>
<path d="M100.3 85.0708C108.035 85.0708 114.278 78.7766 114.278 71.0168C114.278 63.2727 108.037 57 100.3 57C92.5758 57 86.305 63.2747 86.305 71.0168C86.305 78.7746 92.5778 85.0708 100.3 85.0708V85.0708ZM113.9 88.305C120.3 88.305 122.987 93.7717 122.987 93.7717L143.642 122.23C144.497 123.5 145 125.053 145 126.73C145 131.152 141.423 134.746 137.015 134.746C135.998 134.738 134.99 134.542 134.043 134.169L121.521 130.698V143.089H78.4768V130.698L65.9509 134.175C65.0704 134.519 64.0569 134.754 62.9984 134.754C60.8772 134.751 58.8437 133.907 57.3442 132.407C55.8446 130.907 55.0016 128.873 55 126.752C55 125.077 55.495 123.549 56.3813 122.275L77.0231 93.7717C77.0231 93.7717 79.7075 88.305 86.08 88.305H113.9ZM100.011 134.456L116.145 129.095L115.794 128.998C104.632 125.726 108.911 110.942 120.046 114.251L121.521 114.775V98.1035L100.021 105.192L78.4768 98.1035V114.775L79.9521 114.249C91.081 110.942 95.405 125.724 84.2506 128.996L83.8593 129.094L100.011 134.456V134.456Z" fill="#65676B"/>
</svg>
