<svg width="200" height="300" viewBox="0 0 200 300" fill="none" xmlns="http://www.w3.org/2000/svg">
<rect width="200" height="300" fill="#CED0D4"/>
<path d="M73.871 109C71.561 109 69.3457 109.918 67.7123 111.551C66.0789 113.184 65.1613 115.4 65.1613 117.71C65.1613 120.02 66.0789 122.235 67.7123 123.868C69.3457 125.502 71.561 126.419 73.871 126.419C76.1809 126.419 78.3963 125.502 80.0296 123.868C81.663 122.235 82.5806 120.02 82.5806 117.71C82.5806 115.4 81.663 113.184 80.0296 111.551C78.3963 109.918 76.1809 109 73.871 109ZM121.559 109.028C121.235 109.077 120.929 109.235 120.697 109.493L117.879 112.629C114.133 111.044 109.751 112.243 107.388 115.589C107.146 115.932 107.275 116.427 107.638 116.638L111.959 119.144C111.183 120.525 111.645 122.276 113.019 123.074C114.393 123.872 116.151 123.411 116.966 122.053L121.36 124.605C121.723 124.816 122.214 124.685 122.392 124.304C124.019 120.829 123.143 116.739 120.368 114.205L122.058 112.323L130.484 117.358V140.935H127.581C125.977 140.935 124.677 142.235 124.677 143.839V146.742H127.581H136.29H139.194V143.839C139.194 142.235 137.894 140.935 136.29 140.935H133.387V116.53C133.387 116.02 133.116 115.546 132.678 115.283L122.517 109.215C122.221 109.041 121.883 108.98 121.559 109.028ZM105.693 126.397C105.13 126.441 104.619 126.817 104.429 127.389L102.818 132.231C102.564 132.238 102.311 132.257 102.053 132.311L88.8237 134.959L78.1237 130.547C76.5922 129.208 74.6138 128.37 72.4194 128.37C67.6095 128.37 63.7097 132.268 63.7097 137.08V158.355C63.7097 163.166 67.6095 167.065 72.4194 167.065H86.9355V185.935C86.9355 188.34 88.8847 190.29 91.2903 190.29C93.696 190.29 95.6452 188.34 95.6452 185.935V162.71C95.6452 160.305 93.696 158.355 91.2903 158.355H81.129V141.202L86.7314 143.51C87.2601 143.728 87.8215 143.839 88.3871 143.839C88.672 143.839 88.9556 143.81 89.2377 143.754L103.754 140.85C106.113 140.38 107.645 138.083 107.173 135.724C106.96 134.66 106.363 133.777 105.568 133.156L107.184 128.302C107.437 127.542 107.027 126.717 106.266 126.465C106.076 126.4 105.881 126.382 105.693 126.397ZM57.9089 143.816C56.3056 143.816 55.0057 145.115 55.0057 146.719L55 172.871C55 174.072 55.7304 175.1 56.7692 175.542L56.7748 175.547C57.1223 175.694 57.5022 175.774 57.9032 175.774H66.6129V179.154V183.571L61.3281 187.671C60.6945 188.161 60.5811 189.071 61.073 189.706C61.3579 190.075 61.7846 190.268 62.2184 190.268C62.5288 190.268 62.8449 190.166 63.1086 189.961L66.6129 187.245V187.387V188.816C66.6129 189.618 67.2622 190.268 68.0645 190.268C68.8669 190.268 69.5161 189.618 69.5161 188.816V187.308L72.941 189.961C73.2047 190.166 73.5208 190.268 73.8313 190.268C74.2651 190.268 74.6918 190.075 74.9767 189.706C75.4686 189.071 75.3552 188.161 74.7215 187.671L69.5161 183.633V175.774H78.1861C79.7894 175.774 81.0893 174.476 81.0893 172.871C81.0893 171.266 79.7894 169.968 78.1861 169.968H60.8065L60.8121 146.719C60.8121 145.117 59.5136 143.816 57.9089 143.816ZM95.6452 143.839C94.8428 143.839 94.1935 144.488 94.1935 145.29C94.1935 146.093 94.8428 146.742 95.6452 146.742H110.161C110.964 146.742 111.613 146.093 111.613 145.29C111.613 144.488 110.964 143.839 110.161 143.839H95.6452ZM92.7419 149.645C91.1386 149.645 89.8387 150.944 89.8387 152.548C89.8387 154.153 91.1386 155.452 92.7419 155.452H98.5484V187.387C98.5484 188.992 99.8483 190.29 101.452 190.29C103.055 190.29 104.355 188.992 104.355 187.387V155.452H130.484V187.387C130.484 188.992 131.784 190.29 133.387 190.29C134.99 190.29 136.29 188.992 136.29 187.387V155.452H142.097C143.7 155.452 145 154.153 145 152.548C145 150.944 143.7 149.645 142.097 149.645H92.7419Z" fill="#65676B"/>
</svg>
