<svg width="200" height="300" viewBox="0 0 200 300" fill="none" xmlns="http://www.w3.org/2000/svg">
<rect width="200" height="300" fill="#F09F5E"/>
<path d="M94.4285 136.754C93.4365 136.978 92.7005 137.33 92.2205 137.81C91.7405 138.258 91.4205 138.962 91.2605 139.922C91.1005 140.882 91.0205 142.322 91.0205 144.242V169.778C90.3805 169.714 89.8525 169.682 89.4365 169.682C89.0845 169.682 88.4925 169.714 87.6605 169.778L66.3965 146.546V160.37C66.3965 162.738 66.4925 164.45 66.6845 165.506C66.8765 166.53 67.2925 167.282 67.9325 167.762C68.6045 168.242 69.7085 168.594 71.2445 168.818V169.778C69.9325 169.682 68.1405 169.634 65.8685 169.634C64.1725 169.634 62.8445 169.682 61.8845 169.778V168.818C62.8765 168.594 63.6125 168.258 64.0925 167.81C64.5725 167.33 64.8925 166.61 65.0525 165.65C65.2125 164.69 65.2925 163.25 65.2925 161.33V140.882C65.2925 139.666 65.1965 138.786 65.0045 138.242C64.8445 137.698 64.5405 137.33 64.0925 137.138C63.6445 136.946 62.9085 136.818 61.8845 136.754V135.794C62.8445 135.89 64.1725 135.938 65.8685 135.938C67.5965 135.938 69.0685 135.89 70.2845 135.794L89.9165 156.53V145.202C89.9165 142.834 89.8205 141.138 89.6285 140.114C89.4365 139.058 89.0045 138.29 88.3325 137.81C87.6925 137.33 86.6045 136.978 85.0685 136.754V135.794C86.3805 135.89 88.1725 135.938 90.4445 135.938C92.1405 135.938 93.4685 135.89 94.4285 135.794V136.754ZM131.409 167.858C130.449 168.818 129.393 169.49 128.241 169.874C127.089 170.258 125.745 170.45 124.209 170.45C122.001 170.45 120.289 170.066 119.073 169.298C117.857 168.498 117.105 167.154 116.817 165.266L116.097 160.466C115.777 158.226 115.329 156.53 114.753 155.378C114.209 154.226 113.377 153.65 112.257 153.65H110.097V164.69C110.097 165.906 110.177 166.786 110.337 167.33C110.529 167.874 110.849 168.242 111.297 168.434C111.745 168.626 112.481 168.754 113.505 168.818V169.778C111.649 169.682 108.977 169.634 105.489 169.634C101.617 169.634 98.7687 169.682 96.9447 169.778V168.818C97.9687 168.754 98.7047 168.626 99.1527 168.434C99.6327 168.242 99.9527 167.874 100.113 167.33C100.273 166.786 100.353 165.906 100.353 164.69V140.882C100.353 139.666 100.257 138.786 100.065 138.242C99.9047 137.698 99.6007 137.33 99.1527 137.138C98.7047 136.946 97.9687 136.818 96.9447 136.754V135.794C98.7687 135.89 101.521 135.938 105.201 135.938L110.721 135.89C111.361 135.858 112.097 135.842 112.929 135.842C117.793 135.842 121.409 136.53 123.777 137.906C126.177 139.282 127.377 141.378 127.377 144.194C127.377 146.594 126.481 148.642 124.689 150.338C122.897 152.034 119.889 153.074 115.665 153.458C118.929 153.682 121.393 154.306 123.057 155.33C124.721 156.322 125.745 157.794 126.129 159.746L127.137 164.738C127.361 165.922 127.633 166.738 127.953 167.186C128.273 167.634 128.721 167.858 129.297 167.858C129.873 167.858 130.369 167.65 130.785 167.234L131.409 167.858ZM112.689 136.754C111.953 136.754 111.393 136.866 111.009 137.09C110.657 137.314 110.417 137.714 110.289 138.29C110.161 138.866 110.097 139.73 110.097 140.882V152.69H111.393C113.665 152.69 115.217 152.002 116.049 150.626C116.881 149.218 117.297 147.25 117.297 144.722C117.297 142.098 116.929 140.114 116.193 138.77C115.489 137.426 114.321 136.754 112.689 136.754Z" fill="white" fill-opacity="0.8"/>
</svg>
