<svg width="123" height="35" viewBox="0 0 123 35" fill="none" xmlns="http://www.w3.org/2000/svg">
<g clip-path="url(#clip0)">
<path d="M50.2065 11.1605H61.7607V14.2057H53.6165V18.7777H60.4116V21.8229H53.6165V28.3298H50.2065V11.1605Z" fill="#1B2F35"/>
<path d="M63.234 12.9239C63.234 11.8626 64.1444 10.989 65.2204 10.989C66.3212 10.989 67.2316 11.8626 67.2316 12.9239C67.2316 13.9853 66.3212 14.8589 65.2204 14.8589C64.1444 14.8589 63.234 13.9934 63.234 12.9239ZM63.6064 16.5325H66.8178V28.3461H63.6064V16.5325Z" fill="#1B2F35"/>
<path d="M81.0454 21.3249V28.3461H77.8341V22.125C77.8341 19.8716 77.023 19.1695 75.5249 19.1695C73.9026 19.1695 72.8018 20.2799 72.8018 22.3862V28.3379H69.5905V16.5325H72.8018V18.0592H72.8515C73.8364 16.9244 75.2104 16.3447 76.6753 16.3447C79.2577 16.3365 81.0454 17.6918 81.0454 21.3249Z" fill="#1B2F35"/>
<path d="M95.0827 21.2514V28.3461H91.8713V22.0515C91.8713 19.8717 91.0602 19.1695 89.5373 19.1695C87.824 19.1695 86.715 20.2309 86.715 22.3373V28.338H83.5036V10.5318H86.715V17.9612H86.7646C87.7496 16.8754 89.1483 16.3366 90.6629 16.3366C93.237 16.3366 95.0827 17.6428 95.0827 21.2514Z" fill="#1B2F35"/>
<path d="M109.286 16.5325V28.3461H106.24V26.9174H106.165C105.354 27.9542 104.129 28.5421 102.581 28.5421C99.2707 28.5421 96.8622 26.1255 96.8622 22.4679C96.8622 18.8838 99.2873 16.3447 102.507 16.3447C103.931 16.3447 105.155 16.8509 106.016 17.8714H106.091V16.5407H109.286V16.5325ZM106.223 22.4842C106.223 20.5983 104.949 19.1695 103.202 19.1695C101.489 19.1695 100.115 20.4513 100.115 22.4842C100.115 24.3946 101.39 25.7009 103.186 25.7009C104.849 25.7009 106.223 24.4191 106.223 22.4842Z" fill="#1B2F35"/>
<path d="M123 16.5325L116.544 33.1304H113.258L115.369 27.6114L110.61 16.5244H113.945L116.892 23.8313H116.917L119.665 16.5244H123V16.5325Z" fill="#1B2F35"/>
<path d="M37.899 3.64938C37.899 2.10635 36.7485 0.800072 35.1925 0.587802C29.912 -0.138813 18.0597 -1.08586 12.3571 3.81267C11.008 4.97199 10.0976 6.39256 9.50992 7.92743C15.1298 6.41705 22.0574 6.9314 26.0302 7.43758C27.9256 7.68251 29.3326 9.28269 29.3161 11.1605C29.2829 15.2834 28.8112 22.5332 26.262 27.8971C28.1573 27.5869 29.9782 26.8684 31.5342 25.5295C37.2369 20.6228 37.899 8.9153 37.899 3.64938Z" fill="#42B649"/>
<path d="M9.5844 20.5167C8.69879 17.1448 7.90423 12.0912 9.50163 7.92743C7.3083 8.51525 5.31362 9.40515 3.77415 10.7359C-1.29946 15.0956 -0.190383 22.9822 1.03457 27.5787C1.6636 29.9463 3.37687 31.8812 5.66124 32.8201C10.1058 34.6489 17.8694 36.8124 22.943 32.4527C24.3169 31.2689 25.4012 29.6932 26.2454 27.9053C22.0574 28.5829 17.4804 27.2195 14.4014 25.9703C12.0343 24.9906 10.23 22.9822 9.5844 20.5167Z" fill="#42B649"/>
<path d="M26.1709 7.45394C22.2312 6.9396 15.2622 6.40076 9.59269 7.90297C9.54303 7.9193 9.49337 7.95196 9.47682 8.00911C7.91252 12.1647 8.70708 17.1857 9.59269 20.533C10.2383 22.9904 12.0343 24.9907 14.4097 25.9622C17.4638 27.2032 22.0077 28.5584 26.1709 27.9135C26.2289 27.9053 26.2785 27.8727 26.2951 27.8155C28.836 22.4026 29.283 15.1038 29.3161 11.0299C29.3243 9.21741 27.9835 7.68254 26.1709 7.45394Z" fill="#008948"/>
</g>
<defs>
<clipPath id="clip0">
<rect width="123" height="35" fill="white"/>
</clipPath>
</defs>
</svg>
